# xmcd
#
# Track frame offsets: 
#        182
#        11360
#        22565
#        49525
#        61280
#        75127
#        86412
#        101410
#        115827
#        127990
#        144302
#        158280
#
# Disc length: 2298 seconds
#
# Revision: 0
# Processed by: cddbd v1.5.2PL0 Copyright (c) Steve Scherf et al.
# Submitted via: ExactAudioCopy v0.99pb4
#
DISCID=6e08f80c
DTITLE=Mahalia Jackoson - The Best Of Mahalia Jackson
DYEAR=1993
DGENRE=Blues
TTITLE0=Beautiful Tomorrow (Smith-Jackson)
TTITLE1=Keep Your Hand On The Plow (Trad.)
TTITLE2=In The Upper Room (Trad.)
TTITLE3=He's Got The Whole World In His Hands (Trad.)
TTITLE4=Jesus Is With Me (Trad.)
TTITLE5=Joshua Fit The Battle Of Jericho (Trad.)
TTITLE6=I Bow On My Kness (Trad.)
TTITLE7=Hands Of God (Jackson)
TTITLE8=Nobody Knows The Trouble I've Seen (Trad.)
TTITLE9=The Lord's Prayer (Malotte)
TTITLE10=I'm On The Way To Canaan (Smith)
TTITLE11=Go Tell It On The Mountain (Oakeley-Reading)
EXTD=
EXTT0=
EXTT1=
EXTT2=
EXTT3=
EXTT4=
EXTT5=
EXTT6=
EXTT7=
EXTT8=
EXTT9=
EXTT10=
EXTT11=
PLAYORDER=
